<svg width="12" height="11" viewBox="0 0 12 11" fill="none" xmlns="http://www.w3.org/2000/svg">
<path d="M2.28003 0.220823C2.13786 0.0883428 1.94981 0.0162199 1.75551 0.0196481C1.56121 0.0230763 1.37582 0.101788 1.23841 0.239201C1.101 0.376614 1.02228 0.561999 1.01886 0.7563C1.01543 0.950602 1.08755 1.13865 1.22003 1.28082L4.94003 5.00082L1.22003 8.72082C1.14634 8.78948 1.08724 8.87229 1.04625 8.96428C1.00526 9.05628 0.983217 9.1556 0.98144 9.2563C0.979663 9.357 0.998188 9.45703 1.03591 9.55042C1.07363 9.64381 1.12977 9.72864 1.20099 9.79986C1.27221 9.87108 1.35705 9.92723 1.45043 9.96495C1.54382 10.0027 1.64385 10.0212 1.74455 10.0194C1.84526 10.0176 1.94457 9.9956 2.03657 9.9546C2.12857 9.91361 2.21137 9.85451 2.28003 9.78082L6.00003 6.06082L9.72003 9.78082C9.78869 9.85451 9.87149 9.91361 9.96349 9.9546C10.0555 9.9956 10.1548 10.0176 10.2555 10.0194C10.3562 10.0212 10.4562 10.0027 10.5496 9.96495C10.643 9.92723 10.7279 9.87108 10.7991 9.79986C10.8703 9.72864 10.9264 9.64381 10.9642 9.55042C11.0019 9.45703 11.0204 9.357 11.0186 9.2563C11.0168 9.1556 10.9948 9.05628 10.9538 8.96428C10.9128 8.87229 10.8537 8.78948 10.78 8.72082L7.06003 5.00082L10.78 1.28082C10.9125 1.13865 10.9846 0.950602 10.9812 0.7563C10.9778 0.561999 10.8991 0.376614 10.7617 0.239201C10.6242 0.101788 10.4389 0.0230763 10.2446 0.0196481C10.0503 0.0162199 9.86221 0.0883428 9.72003 0.220823L6.00003 3.94082L2.28003 0.220823Z" fill="black"/>
</svg>
